<?xml version="1.0" encoding="utf-8"?>
<!-- Generator: Adobe Illustrator 21.0.2, SVG Export Plug-In . SVG Version: 6.00 Build 0)  -->
<svg version="1.1" id="outline" xmlns="http://www.w3.org/2000/svg" xmlns:xlink="http://www.w3.org/1999/xlink" x="0px" y="0px"
	 viewBox="0 0 960 560" style="enable-background:new 0 0 960 560;" xml:space="preserve">
<style type="text/css">
	.st0{fill:#981B1E;}
</style>
<path class="st0" d="M531,375.8c-0.1-0.7-0.4-4.9-2.5-10c-1.2-2.9-1.8-4.4-3.3-5c-3-1.2-5.9,2.9-9,1.5c-0.6-0.3-1.5-1.3-3.3-3.3
	c0,0-1.5-1.6-2.5-3c-4.2-5.5-57-116-58-118.5c0.2-1.6,0.4-3.1,0.8-4.3c0.3-1.2,0.7-2.6,1.5-4.3c1.2-2.4,1.9-2.4,2-3.8
	c0.2-2-1.4-3.7-1.8-4.1c-0.4-0.4-1.4-1.5-3-1.8c-0.8-0.1-1.7-0.1-6.2,1.8c-2.8,1.2-3.6,1.7-4.7,1.3c-0.6-0.2-1.1-0.8-2-2
	c-1.5-1.9-1.5-2.6-2.7-3.8c-0.9-1-1.4-1.4-2.2-1.7c-2.1-0.6-5.1,0.9-5.8,1.3c-0.7,0.4-1.1,0.7-1.7,0.5c-0.8-0.3-1.1-1.5-1.3-2.5
	c-0.6-2.8-0.9-4.2-1-5.7c0-0.8-0.3-6.7-3.8-11.2c-0.7-0.9-2.5-3.1-5.5-4.2c-2.8-1-5.4-0.6-7.2-0.3c-1.3,0.2-3.6,0.6-6,2.2
	c-1,0.6-2.7,1.8-4,4c-0.9,1.6-1.2,3.1-1.5,5.2c-0.2,1.5-0.5,3.4-0.2,5.8c0.1,0.8,0.6,2.3,1.5,5.3c0.5,1.7,0.8,2.6,1.2,4.2
	c0.4,1.7,0.1,1.3,0.5,3c0.2,1,0.3,1.4,0.2,1.8c-0.4,0.9-1.5,1.3-2.2,1.5c-1.3,0.4-1.6,0.1-2.8,0.3c-1.9,0.4-3,1.7-3.3,2
	c-0.9,1-1.3,2-1.7,3.2c-0.4,1.1-0.6,2.3-0.8,3.3c-0.3,1.5-0.2,1.7-0.5,2c-0.3,0.4-0.8,0.8-3.7,1.2c-2.5,0.3-3,0.1-4.7,0.5
	c-1,0.3-1.8,0.5-2.5,1c-1.6,1.2-2.8,3.6-2.2,5.5c0.6,1.9,2.4,1.3,6.8,4.7c1.4,1.1,2.2,1.9,4.2,3.2c0.6,0.4,1.8,0.5,2.3,1.5
	c0.4,0.7,0.3,1.4,0.3,1.7c-0.1,2.4,0.5,4.8,0.3,7.3c-0.5,5.6,3.1,116.1,2.4,126.5c-0.1,1-0.3,2.9-1.5,3.6c-0.7,0.4-1.2-0.1-3.3,0
	c-2.7,0.1-3.2,0.3-3.7,0.5c-1.1,0.6-1.8,1.6-2.3,2.5c-0.6,0.9-0.9,1.8-1,2.2c-0.5,1.7-0.4,3.1-0.3,4c0.6,6.6,1,10.6,3.7,14.8
	c2.1,3.4,4.8,5.3,6.2,6.3c16.2,11.9,14,13,28.5,22.3c10.5,6.8,18.3,10.5,32.2,17.2c17.5,8.4,16.3,6,20,8.2c0.7,0.4,3.1,1.9,6,1.8
	c1.5,0,3.1-0.5,3.3-0.5c0,0,1.6-0.4,3.2-1.2C492,466.9,503,445,503,445c8.7-17.3,13-26,18.3-35c2-3.5,6.1-10.4,8.5-20
	C530.5,387.1,531.5,382,531,375.8z M482.5,320.5l-37,29l-46.8-9L482.5,320.5z M399.8,305.5l26.8-32.8l38.8,16.3L399.8,305.5z
	 M449.3,245.8l19.3,38.5l-38-15.8L449.3,245.8z M445.8,242L426,265.8l-1.5,1.8l-27.3-12.3L445.8,242z M421,271l-26,31l-0.3-42
	L421,271z M394.8,345l46.8,8.8L396.3,385L394.8,345z M398.8,389.8l47.5-34.5l54,11.5L398.8,389.8z M453,351.3l34.3-28.3l19.3,37.8
	L453,351.3z"/>
</svg>
