<?xml version="1.0" encoding="utf-8"?>
<!-- Generator: Adobe Illustrator 21.0.2, SVG Export Plug-In . SVG Version: 6.00 Build 0)  -->
<svg version="1.1" id="outline" xmlns="http://www.w3.org/2000/svg" xmlns:xlink="http://www.w3.org/1999/xlink" x="0px" y="0px"
	 viewBox="0 0 960 560" style="enable-background:new 0 0 960 560;" xml:space="preserve">
<style type="text/css">
	.st0{fill:#3E8785;}
</style>
<path class="st0" d="M830.7,309.3c-1.5-1.6-3-3.3-4.7-5c-1.1-1.2-2.2-2.3-3.3-3.3h-21.3c-5,0.7-10,0-10,0l-1.1-1.4l-2.6-0.5
	l-1.3,1.1l-2.4,1.5l-1.2,0.3l-2.8-0.5l-2.3-1.2l-3.9-2l-3.1-0.3l-4.5-0.1l-1.5,1.1l-1.6,1.3l-0.3,2.1l-1.4,0.7l-4.5-0.3l-5.9-0.5
	l-3.8-1.3l-3.7-1.5l-3.6-0.8l-4,0.8l-1.6,2.3l-22.9-0.4l-2.7-1.2l-16.6,0.1l-1.8-1.2l-12.3,0.1l-5.3-3.8l-20.7-0.2l-3.9,2l-13.5,0.4
	l-2.3-1.4l-3.3-0.8l-4.1,0.3l-1.7,1l-1.6,0.5l-5.9-0.4l-6-2.6l-16.4-0.1l-1.8,2.8l-4.1-0.3l-6.2-0.8l-2.3-1.4l-0.4-2.4l-12,0.2
	l-2.7-0.8l-2.2-1.2l-6.3-0.8l-4.1-0.8l-3.8-1.3l-1.6-2.8l-3.1-0.9l-4.9-2.5l-5.3-1.3l-5.9-2.2l-1.3-1.4l-3.1-1.9l-5.2-2.6l-2.7-0.3
	l-0.6-1.4l-10.8-0.6l-3.5-2.5l-1.2-1.2l-10.9-0.6l-2-1.7l0.3-6.4c0,0-0.1-1.5-2.1-3.2c-2-1.7-5.3-2-6.8-2.3
	c-1.6-0.3-11.3-1.9-11.3-1.9l-10.8-1.5l-10-1.4l-7.8-1l-3.3-1.1l-30.3-20.8l-2.8-0.2l-1.1,1.6l-2.7,0.3l-3.7-2.1l-2.6-0.8l-3.5-0.8
	l-0.8-21.8l1-1l-0.3-0.7l-3.8-0.2l-0.5-3.5l-5.3-0.3l-2.1-37.4c0,0,1-1.3,1.9-2s1.4-1.2,1.8-2.7c0.4-1.5,0.8-1.9,0.4-3s-2-3-3.6-3.6
	c-1.6-0.6-1.8-0.6-3.3-0.8c-1.4-0.1-2.4-0.2-2.4-0.2l0.1-18.4l1.9-1.3c0,0,0.9-0.7,0.4-1.3s-1.5-1.3-1.5-1.3s0,0.8-0.8-1.6
	c-0.9-2.3-2-5.1-2-5.1l-1.5-0.8l-1.7-0.3l-0.8-1.3v-1.7l1-0.2l-0.4-2c0,0-0.3-0.2-0.8-0.7c-0.5-0.5-1.5-2-2.6-2.1
	c-1-0.1-5.1-0.2-5.1-0.2s-1.1,0-1.8,0.7c-0.6,0.7-2.1,1.1-2.3,1.9c-0.2,0.8-0.4,2.1-0.4,2.1l0.9,0.6l0.1,1.8c0,0-0.8,0.4-1.2,0.8
	c-0.4,0.4-2,0.5-2.4,0.9s-1.3,0.5-1.4,1.3c-0.1,0.8-0.7,1.9-0.7,2.5c0,0.6-0.9,1.7-0.8,2.3s-1.3,1.3-1.3,1.3l-0.9,1.3l0.8,1.5
	l1.1,0.3l0.7,0.4v17.8c0,0-0.8,0.2-2,0.8c-1.2,0.5-2,0.5-2.9,1.1c-0.9,0.5-2.3,0.8-2.8,1.5c-0.5,0.8-1.2,1.3-1.3,2
	c0,0.8,0,2.2,0.3,2.6c0.3,0.4,0.3,0.9,0.9,1.8c0.7,0.8,0.4,0.7,1.4,1.4s1.3,1.3,1.3,1.3l-3.1,52.3l-2.5,0.3l-0.4,1.9l1.5-0.2
	l0.3,8.8l-28.9,18.7l-0.2,2.2l1.3-0.1l-0.4,18l-2,1.2l-2.4,0.2l-3-0.9l-6.4-0.2l-6.3,4.2l-11.8,0.3c0,0,0.1,0.6-0.8,0.9
	c-1,0.3-1,0.6-1.8,0.3c-0.8-0.4-1.4-1.1-1.7-1.3s-5.3-0.2-5.3-0.2l-1,2.2l-1.8,1.3l-2.8,0.3l-2.8,0.5l-0.9,2l-3.2-0.1l-2.4,0.2
	l-1.8,1.6l-3,1.7l-0.6,2.7l-7,0.4l-1.7,1.9l-9.3,0.7l-5.6,1.8l-3.8,2.8l-4.7,0.5l-3.8-0.7l-3.8-1l-6.8-0.5l-2.7,2.2l-2.6-0.3l-2.4-2
	l-10.8,0.4l-1.2,0.8L177,282l-5.9,0.3l-8.4,0.2l-2.9,1.3l-11.4,0.8l-3.3,1.7l-10.1,0.1l-2.2,0.6L129,288l-1.3-3.5l-3,0.8l-1.8,0.7
	l-3.8-1l-2.3,1.4l-3.4-0.7l-2.3-1l-6.3,1.6l-2.3,1.7l-4.9-0.3l-2.6,0.5l-1.8,2.3l-2.7,1.4l-3.2-0.1l-3.2,0.6l-2.7,0.7l-4.1-0.3
	l-2.3,0.7l-2.8,0.8l-3.2,0.1l-0.8,0.6l10,0.4l14.6,1.4c0,0,12.2,1.1,12.6,1.1c0.4,0,15.1-0.2,15.7-0.2s8.7-1.1,8.7-1.1l14.8-0.4
	l27.3,0.8l11.2-0.2l8.3,1.2l-4.7,1.1l1.4,1.1c0,0,10.6-0.3,10.8-0.3c0.2,0,11.5-0.5,11.5-0.5l9-0.1l-0.7,2.3l2.5,0.1l22.6-1.1
	l9.4-0.4c2.6-0.1,5.3-0.1,7.9-0.2c2.2,0.1,3.9,0.1,5,0.2c2,0,3.4,0,4.3,1c0.2,0.2,0.5,0.5,0.5,1c0,0.2,0,0.6-1.8,2.6
	c-0.3,0.3-0.5,0.7-1,0.9c-1.4,0.8-0.6,0.3-4,0.8s-7.4,0.6-7.4,0.6l-21.7,0.5l-4.3,1.2l1.3,1.2l48,0.7l0.8-2.2l-12,0.2l0.1-1.3
	c0,0,0.4-0.3,1.8-0.5c0.3,0,0.5-0.1,0.6-0.1c0.2-0.1,0.4-0.1,0.5-0.1c0.5-0.2,2.3-0.7,3-0.8c0,0,2.8-0.6,5.6,0.5
	c0.3,0.1,0.7,0.3,1.1,0.7c0.4,0.3,0.4,0.6,1.6,1.2c1.9,1,0.8,1,4,1s3.1-0.4,5.5-0.6c2.4-0.2,0.6-0.6,1.8-1.2c1.2-0.6-0.2-1,2.9-1
	c3.1,0,2.7-0.2,4.3,0.4c1.6,0.6,0.1,0.9,1.4,1.8c1.3,1-1.2,1.1,2.1,0.6s1.9,0.6,3.3-0.5c1.4-1.2,0-1.2,1.7-1.5
	c1.6-0.3-0.3-1.2,1.6-0.3c1.6,0.7,1.4,0.8,1.6,1.1c0,0,0.1,0.1,0.3,0.3c0.8,0.7,2.1,0.8,2.1,0.8c1.1,0.1,1.9-0.3,2.3-0.5
	c-0.1-0.2-0.3-0.6-0.1-0.8c0.2-0.2,0.5-0.1,0.9-0.2c0.8-0.2,0.8-0.9,1.5-1.2c0.6-0.2,1.4,0.1,1.8,0.5c0.8,0.8,0.4,2,1.2,2.4
	c0.1,0.1,0.2,0.1,0.5,0.1c1.2,0,2.2-0.5,4-1.1c1.8-0.6,7.2-0.9,7.2-0.9l6.1,0.2l1.8,0.9l-0.9,1.6l-1.9,0.2c0,0-3,0.9-5.8,1
	c-2.8,0.1-6.3,0.9-7.9,1c-1.7,0.1-30.8,0.5-30.8,0.5l-0.7,1.8l29.8,0.3l41.1-0.2l12.9-0.5c0,0,3.8,0,3.6-0.8
	c-0.2-0.8-0.5-1.3-1.8-1.5s-6.6-0.6-7.3-0.5s-28.2-0.8-28.2-0.8s-0.7-0.5,0-1s0.7-1.5,1.8-1.7s0.4-0.8,2.1-0.6
	c1.7,0.2,1.3,0.3,1.8,1c0.5,0.7,41.3,0.3,41.3,0.3l25.4,1.3l32,0.3c2.2,0.1,4.4,0.1,6.7,0.1c2.3,0,4.5,0,6.7,0
	c-1.4-0.4-2.8-0.8-4.2-1.2c-1.3,0.2-2.5-0.3-2.8-1.2c-0.3-0.8,0.1-1.6,0.2-1.7c0.3-0.5,0.8-0.9,2.3-1.3c1.7-0.5,3.1-0.7,3.2-0.7
	c3-0.3,5.2-0.3,6.7-0.3c3.8,0,4.3,0.1,4.8,0.5c1.2,0.9,1,1.9,2.3,3c1,0.8,2.1,1.1,3.3,1.3c1.4,0.3,3.9,0.6,7.1-0.2
	c6.1-0.1,12.2-0.1,18.3-0.2c3.3-0.4,6.6-0.9,9.8-1.3c2.4-0.3,4.7-0.5,7.1-0.8h6.7l31.1,1.7l18.6,0.2l7.9,0.6l5.7,3.2l20.2-1.2
	l31.8,0.1l3.8,1.2l15.5-0.7l2.8,2c0,0,2.1,0,2.6,0c0.5,0,4.3-1.1,4.3-1.1l1.2-1l12.8,0.3l3.4,1.3l4.8,0.3h1.6l-5.8-3.1
	c1-0.4,2.1-0.9,3.1-1.3c0.8,0.6,1.6,1.3,2.3,1.9l5.4-0.3l1.6-1.2l2.3,0.8l-0.1,1.6l3.8,1.3l3.8-1.7l4.3,0.1l3.1,0.4l7.9-0.8l3.3-0.4
	l-1.8-1.6l1.1-1.8l4.8,0.2l2.9,0.3l1.8,2.4l3-0.1l1.7-0.3l1.3,1.7l-2.3,1.7l-7.3,0.3l-5.8,0.2c0,0-3.7,1-3.9,1.2
	c-0.3,0.2-0.9,1.2-0.9,1.2l108.3-0.3l-25.8-1.6l-18.9,0.4l-8.9-0.8l-8.3-2.4l2.8-0.9h8.3l3.4,2.3l3.7-0.7l1.3-0.9l2.3-0.5l2.4,0.8
	l-0.2,1l1.4,0.3l0.9,0.2l1.7-1.3l2.3,0.4l0.3,0.8l2.5-0.4l0.3-1.9l1.4-0.8l3.6-0.2l2.4,1.6l2.4,0.5l2.8-0.9l16.7,0.6l9.9,0.6l5.2-1
	l2.3-1.2l-5.8-3l-10.5,0.1l-2.8,1.7L830.7,309.3z"/>
</svg>
