<?xml version="1.0" encoding="utf-8"?>
<!-- Generator: Adobe Illustrator 21.0.2, SVG Export Plug-In . SVG Version: 6.00 Build 0)  -->
<svg version="1.1" id="Layer_1" xmlns="http://www.w3.org/2000/svg" xmlns:xlink="http://www.w3.org/1999/xlink" x="0px" y="0px"
	 viewBox="0 0 960 560" style="enable-background:new 0 0 960 560;" xml:space="preserve">
<style type="text/css">
	.st0{fill:#3E8785;}
</style>
<g id="rocks">
	<g id="shadows">
	</g>
	<g id="hightlights">
		<g>
			<path class="st0" d="M545.5,446L521,457.5l-22.6,2.6L465.7,481l33.7,3l-19,17.3l-11.7-6.3L457,508.3l-4-34.7l-39,33.7l-28.7,4.3
				l24.7-11l2.3-45L426,479l-18.5-32l-17-3.3L364,455l28.7-4.7l10,7.7l-34,11.3l12,28.3l-49-1l-18,10.7l15.7-5l-1,9l-37.3,3
				l19.7-6.7l0.6-1l9.1-15.3l45-9L364,455l-16.5,27.3L313,492.5L285,516l95.3,14.3L409,510l51.5-0.8l52.5-14.8l10.5-20.8l3.5-2.8
				l65.3,14.3l28.3-21.8L545.5,446z M400.3,465l5,13.3L387,464.7L400.3,465z M520.3,474.3l-20,5.7l20-15V474.3z M524.3,460l9-7.7
				l50,28.3L524.3,460z M587.7,475.3L577,453.7l32.7,14.3L587.7,475.3z"/>
			<polygon class="st0" points="444,466.3 497.5,460.3 498.4,460.1 499.7,459.3 			"/>
		</g>
	</g>
</g>
<g id="top">
	<path class="st0" d="M520,240.3l0.2-26.3c0,0-0.1-2-1.6-4.2c-1.5-2.1-5.7-7-10.2-9.4c-4.6-2.5-8-3.4-8-3.4v-17.3
		c0,0-0.7-2.1-1.8-3.3c-1-1.3-2-2.3-2.8-2.8c-0.8-0.5-1.5-1-1.5-1l-0.1,22.4l-4.2-1.1l-0.1-23.8c0,0-3-1.3-4.5-1.7s-7.8-2-11.8-2.2
		c-3.9-0.2-7.1-0.7-10.2-0.6c-3,0.1-8.8,0.3-11.5,0.8s-7,1.1-8.3,1.6s-1.3,0.5-1.3,0.5l0.1,24.3c0,0-1.5,0.4-3.2,0.7
		s-2.9,0.5-3.5,0.7s-0.6,0.2-0.6,0.2l-0.1-23.1c0,0-1.6,0.6-2.2,1.1s-1.6,1.3-2.3,1.9s-1.7,2-2.1,2.6s-0.8,1.8-0.9,2.4
		s-0.3,1.2-0.3,1.6s-0.1,15.7-0.1,15.7s-0.9,0.3-1.8,0.7s-3,1.4-3.6,1.8s-3,1.5-3.7,1.9s-2.8,1.8-3.4,2.3s-3,2.6-4,3.9
		s-2,2.9-2.3,3.6s-0.8,2.1-0.8,2.1l-0.1,26.6c0,0,0.9-2.8,1.6-3.8s1.3-2.2,1.9-2.8s3.2-3.3,5.1-4.4s2.7-1.9,4.4-2.7s3.5-1.8,4.3-2.1
		s3.6-1.3,5.1-1.9s5.9-1.7,7.6-2.1s5.8-1.2,7.3-1.4s6.8-0.8,8.3-0.9s6.4-0.3,7.3-0.3s6.3,0,7.4,0.1s5.9,0.2,7,0.3s6.8,0.7,9.3,1.1
		s6.1,0.9,7.6,1.4s4.4,1.3,5.7,1.8s6.8,2.5,8.6,3.6s6,3.3,7,4.3s2.9,2.5,3.4,3.3s1.8,2.3,2.2,3.3S520,240.3,520,240.3z"/>
	<path class="st0" d="M503.3,175.8l0.1-9.9c-0.6-1.6-1.3-2.7-1.8-3.5c-0.9-1.2-1.8-1.9-2.8-2.8c-1.3-1.1-2.4-1.7-2.8-1.9
		c-0.3-0.2-1-0.5-1.8-0.9c0,0-0.4-0.2-2-0.8l0,0c0,0-1.8-4.6-2.9-6.3c-0.3-0.5-1.5-2.5-3.6-4.8c-1.8-2.1-3.5-3.5-4.3-4.1
		c-1.2-1-2.7-2.1-4.9-3.3c-0.7-0.4-3.3-1.6-7-2.3c-2.1-0.4-3.8-0.4-5.3-0.5c-1.4,0-2.8-0.1-4.8,0.2c-0.7,0.1-2.1,0.3-3.9,0.8
		c-0.8,0.2-2.1,0.6-3.8,1.5c-1.4,0.7-2.3,1.3-3.3,2c-2.1,1.4-3.8,2.7-4.4,3.5c-1,1.1-2.2,2.1-3,3.2c-0.8,1.1-2,2.9-2.5,3.7
		c-0.5,0.8-1,1.4-1.5,2.6c-0.4,1.2-0.9,1.9-1,2.5c-0.1,0.6-0.3,1.2-0.3,1.2s-1.2,0.5-1.8,0.7c-0.6,0.2-1.9,0.8-2.3,1.1
		s-1.8,1.1-2.3,1.5c-0.7,0.6-1.2,1.1-2.1,2.1c-0.7,0.8-1.1,1.2-1.5,1.8c-0.4,0.6-0.8,1.2-1,2c-0.3,0.9-0.3,1.7-0.3,2
		c0.1,0.7-0.2,9.2-0.2,9.2s0.6-2.3,1.1-3c0.5-0.8,1-1.7,1.7-2.5c0.7-0.7,1.1-1.5,2.1-2.1c0.9-0.6,1.6-1.2,2.6-1.8
		c2.5-1.4,4.8-2.3,5.8-2.6c5-1.7,9.2-2.5,11-2.8c3-0.5,5.3-0.7,6.7-0.8c3.3-0.3,5.7-0.3,9.3-0.3c3.3,0,5,0,7.2,0.2
		c1.9,0.1,3.9,0.4,7.9,1c4.3,0.6,5.5,0.9,6.8,1.3c1.5,0.5,2.8,1,3.8,1.4c2.2,0.9,3.7,1.6,4.3,1.9c2.6,1.3,3.6,2,4,2.4
		c1,0.8,1.5,1.4,1.7,1.6c0.6,0.7,0.9,1.3,1.4,2c0.4,0.7,0.8,1.4,1,1.8L503.3,175.8z"/>
	<path class="st0" d="M522,459.7L507,242c0,0-3.8-5.5-6.1-6.9s-7-3-9.5-3.8s-5.5-1.1-9.6-1.9s-8.6-1.1-11.5-1.1s-7.5-0.4-9.8-0.3
		s-7.4,0.4-11,0.9s-6.8,0.5-9.8,1.4s-7.4,2.4-9.6,3.4s-3.8,2.1-6.1,4s-3.3,4.5-3.3,4.5L407,451.8l6,4.3l12.5,24l18.5-13.3l53-6.8
		L522,459.7z"/>
</g>
</svg>
